<svg xmlns="http://www.w3.org/2000/svg" viewBox="0 0 230 210">
    <!-- Background -->
    <rect width="230" height="210" fill="#f8f9fa"/>
    
    <!-- Grid lines - vertical -->
    <g stroke="#999" stroke-width="0.5">
      <line x1="0" y1="0" x2="0" y2="210"/>
      <line x1="10" y1="0" x2="10" y2="210"/>
      <line x1="20" y1="0" x2="20" y2="210"/>
      <line x1="30" y1="0" x2="30" y2="210"/>
      <line x1="40" y1="0" x2="40" y2="210"/>
      <line x1="50" y1="0" x2="50" y2="210"/>
      <line x1="60" y1="0" x2="60" y2="210"/>
      <line x1="70" y1="0" x2="70" y2="210"/>
      <line x1="80" y1="0" x2="80" y2="210"/>
      <line x1="90" y1="0" x2="90" y2="210"/>
      <line x1="100" y1="0" x2="100" y2="210"/>
      <line x1="110" y1="0" x2="110" y2="210"/>
      <line x1="120" y1="0" x2="120" y2="210"/>
      <line x1="130" y1="0" x2="130" y2="210"/>
      <line x1="140" y1="0" x2="140" y2="210"/>
      <line x1="150" y1="0" x2="150" y2="210"/>
      <line x1="160" y1="0" x2="160" y2="210"/>
      <line x1="170" y1="0" x2="170" y2="210"/>
      <line x1="180" y1="0" x2="180" y2="210"/>
      <line x1="190" y1="0" x2="190" y2="210"/>
      <line x1="200" y1="0" x2="200" y2="210"/>
      <line x1="210" y1="0" x2="210" y2="210"/>
      <line x1="220" y1="0" x2="220" y2="210"/>
      <line x1="230" y1="0" x2="230" y2="210"/>
    </g>

    <!-- Grid lines - horizontal -->
    <g stroke="#999" stroke-width="0.5">
      <line x1="0" y1="0" x2="230" y2="0"/>
      <line x1="0" y1="10" x2="230" y2="10"/>
      <line x1="0" y1="20" x2="230" y2="20"/>
      <line x1="0" y1="30" x2="230" y2="30"/>
      <line x1="0" y1="40" x2="230" y2="40"/>
      <line x1="0" y1="50" x2="230" y2="50"/>
      <line x1="0" y1="60" x2="230" y2="60"/>
      <line x1="0" y1="70" x2="230" y2="70"/>
      <line x1="0" y1="80" x2="230" y2="80"/>
      <line x1="0" y1="90" x2="230" y2="90"/>
      <line x1="0" y1="100" x2="230" y2="100"/>
      <line x1="0" y1="110" x2="230" y2="110"/>
      <line x1="0" y1="120" x2="230" y2="120"/>
      <line x1="0" y1="130" x2="230" y2="130"/>
      <line x1="0" y1="140" x2="230" y2="140"/>
      <line x1="0" y1="150" x2="230" y2="150"/>
      <line x1="0" y1="160" x2="230" y2="160"/>
      <line x1="0" y1="170" x2="230" y2="170"/>
      <line x1="0" y1="180" x2="230" y2="180"/>
      <line x1="0" y1="190" x2="230" y2="190"/>
      <line x1="0" y1="200" x2="230" y2="200"/>
      <line x1="0" y1="210" x2="230" y2="210"/>
    </g>
    
    <!-- The filled rectangle (15x10) -->
    <rect x="40" y="40" width="150" height="100" fill="#2563eb" opacity="0.3"/>
    
    <!-- The stroke "corridor" - now 2 grid pixels (20 units) wide -->
    <path d="M30 30 H200 V150 H30 V30" 
          stroke="#000" stroke-width="1.5" stroke-dasharray="2,2" fill="none"/>
    <path d="M50 50 H180 V130 H50 V50" 
          stroke="#000" stroke-width="1.5" stroke-dasharray="2,2" fill="none"/>
    
    <!-- Arrow marker definition -->
    <defs>
      <marker id="arrowhead" markerWidth="10" markerHeight="7" 
      refX="9" refY="3.5" orient="auto">
        <polygon points="0 0, 10 3.5, 0 7" fill="#000"/>
      </marker>
    </defs>

    <!-- Stroke label with arrow -->
    <text x="115" y="20" text-anchor="middle" font-size="12">stroke of width 2</text>
    <path d="M115 22 L115 29" stroke="#000" stroke-width="0.5" marker-end="url(#arrowhead)"/>
    
    <!-- Text "fill" centered in the rectangle -->
    <text x="115" y="95" text-anchor="middle" dominant-baseline="middle" 
          font-size="16" fill="#000">fill</text>

    
    <!-- Explanatory text -->
    <text x="115" y="160" text-anchor="middle" font-size="10">
      the stroke is centred on the rectangle path.
    </text>
    <text x="115" y="175" text-anchor="middle" font-size="10">
      It's 2px wide so it aligns with the physical pixels
    </text>
    <text x="115" y="190" text-anchor="middle" font-size="10">
      and will fill them completely
    </text>
    <text x="115" y="205" text-anchor="middle" font-size="10">
      and with full opacity
    </text>
</svg>